# xmcd
#
# Track frame offsets:
# 150
# 31265
# 67447
# 95265
# 129292
# 149010
# 182223
# 196316
# 233050
# 262430
# 277562
# 315056
#
# Disc length: 4441 seconds
#
#
# Revision: 1
# Processed by: cddbd v1.5.2PL0 Copyright (c) Steve Scherf et al.
# Submitted via: FreeRIP 2.941 
#
DISCID=ab11570c
DTITLE=The Best In Dance Vol. 1 - CD 1 - The Best In Dance Vol. 1 - CD 1
DYEAR=2003
DGENRE=Dance
TTITLE0=Special D - Home Alone (Club Mix)
TTITLE1=Mark 'Oh - Stuck On You (Club Version)
TTITLE2=Haddaway - What Is Love - Reloaded (Reloaded Mix)
TTITLE3=Masterboy - Feel The Heat Of The Night 2003 (Special D Rmx)
TTITLE4=Ayu - M (Van Eyden Vs. M.O.R.P.H. Rmx Edit)
TTITLE5=Starsplash Feat. Daisy Dee - Fly Away (Owner Of Your Heart) (New Club Mix)
TTITLE6=RMB Feat. Talla 2XLC - Spring 2003 (Talla 2XLC Radio Edit)
TTITLE7=DJ Shog - Another World (Marc Van Linden Rmx)
TTITLE8=Jan Wayne Meets Danielle - 1,2,3 Keep The Spirit Alive (Club Mix)
TTITLE9=CJ Stone - Don't Look Back (Radio Edit)
TTITLE10=DJ Sakin and Friends - Sometimes (Retromix)
TTITLE11=Revil O. - Free (Club Radio Cut)
EXTD=
EXTT0=
EXTT1=
EXTT2=
EXTT3=
EXTT4=
EXTT5=
EXTT6=
EXTT7=
EXTT8=
EXTT9=
EXTT10=
EXTT11=
PLAYORDER=
